<svg width="32" height="32" viewBox="0 0 32 32" fill="none" xmlns="http://www.w3.org/2000/svg">
<g clip-path="url(#clip0_2231_60032)">
<mask id="mask0_2231_60032" style="mask-type:luminance" maskUnits="userSpaceOnUse" x="0" y="0" width="32" height="32">
<path d="M32 0H0V32H32V0Z" fill="white"/>
</mask>
<g mask="url(#mask0_2231_60032)">
<mask id="mask1_2231_60032" style="mask-type:luminance" maskUnits="userSpaceOnUse" x="0" y="0" width="32" height="32">
<path d="M32 0H0V32H32V0Z" fill="white"/>
</mask>
<g mask="url(#mask1_2231_60032)">
<path fill-rule="evenodd" clip-rule="evenodd" d="M16 0C24.8372 0 32 7.16283 32 16C32 24.8372 24.8372 32 16 32C7.16283 32 0 24.8372 0 16C0 7.16283 7.16283 0 16 0Z" fill="#F0B90B"/>
<path d="M8.79476 15.9996L8.8063 20.2304L12.4012 22.3457V24.8227L6.70245 21.4804V14.7624L8.79476 15.9996ZM8.79476 11.7689V14.2343L6.70117 12.9958V10.5304L8.79476 9.29199L10.8986 10.5304L8.79476 11.7689ZM13.9025 10.5304L15.996 9.29199L18.0999 10.5304L15.996 11.7689L13.9025 10.5304Z" fill="white"/>
<path d="M10.3066 19.3535V16.8765L12.4002 18.1151V20.5804L10.3066 19.3535ZM13.9015 23.2329L15.9951 24.4715L18.0989 23.2329V25.6984L15.9951 26.9368L13.9015 25.6984V23.2329ZM21.1015 10.5304L23.1951 9.29199L25.2989 10.5304V12.9958L23.1951 14.2343V11.7689L21.1015 10.5304ZM23.1951 20.2304L23.2067 15.9996L25.3003 14.7612V21.4791L19.6015 24.8215V22.3445L23.1951 20.2304Z" fill="white"/>
<path d="M21.6932 19.353L19.5996 20.5799V18.1146L21.6932 16.876V19.353Z" fill="white"/>
<path d="M21.6939 12.6458L21.7053 15.1228L18.1003 17.2381V21.4792L16.0067 22.7061L13.9131 21.4792V17.2381L10.3079 15.1228V12.6458L12.4105 11.4074L15.9939 13.5331L19.5989 11.4074L21.7028 12.6458H21.6939ZM10.3066 8.41634L15.9951 5.0625L21.6939 8.41634L19.6003 9.65481L15.9951 7.52917L12.4002 9.65481L10.3066 8.41634Z" fill="white"/>
</g>
</g>
</g>
<defs>
<clipPath id="clip0_2231_60032">
<rect width="32" height="32" fill="white"/>
</clipPath>
</defs>
</svg>
