<svg width="32" height="32" viewBox="0 0 32 32" fill="none" xmlns="http://www.w3.org/2000/svg">
<g clip-path="url(#clip0_2231_58779)">
<mask id="mask0_2231_58779" style="mask-type:luminance" maskUnits="userSpaceOnUse" x="0" y="0" width="32" height="32">
<path d="M32 0H0V32H32V0Z" fill="white"/>
</mask>
<g mask="url(#mask0_2231_58779)">
<mask id="mask1_2231_58779" style="mask-type:luminance" maskUnits="userSpaceOnUse" x="0" y="0" width="32" height="32">
<path d="M32 0H0V32H32V0Z" fill="white"/>
</mask>
<g mask="url(#mask1_2231_58779)">
<path d="M31.5212 19.8705C29.3841 28.442 20.7016 33.6584 12.1281 31.5209C3.55817 29.384 -1.65887 20.702 0.479233 12.1312C2.61545 3.55871 11.298 -1.65814 19.8688 0.478775C28.4417 2.6157 33.6585 11.2986 31.5212 19.8705Z" fill="#F7931A"/>
<path d="M23.0571 13.7204C23.3756 11.5912 21.7544 10.4466 19.5375 9.68311L20.2567 6.79886L18.5007 6.36138L17.8005 9.16969C17.3389 9.05457 16.8649 8.9461 16.3937 8.83857L17.0989 6.01171L15.344 5.57422L14.6245 8.45754C14.2425 8.37058 13.8673 8.28463 13.5032 8.19406L13.5053 8.18499L11.0838 7.58038L10.6167 9.45562C10.6167 9.45562 11.9195 9.75421 11.892 9.77258C12.6031 9.95003 12.7317 10.4207 12.7103 10.7937L11.8911 14.0796C11.94 14.092 12.0036 14.11 12.0736 14.1381C12.015 14.1236 11.9527 14.1077 11.888 14.0923L10.7397 18.6952C10.6528 18.9112 10.4323 19.2355 9.93514 19.1123C9.95274 19.1379 8.65891 18.7939 8.65891 18.7939L7.78711 20.8036L10.0722 21.3732C10.4973 21.4797 10.9139 21.5913 11.3241 21.6961L10.5975 24.6135L12.3514 25.0511L13.0709 22.1647C13.5501 22.2947 14.0151 22.4147 14.4703 22.5277L13.7532 25.4005L15.5092 25.838L16.2357 22.9261C19.23 23.4928 21.4813 23.2643 22.4291 20.5563C23.1927 18.3761 22.3911 17.1185 20.8157 16.2984C21.9631 16.0339 22.8267 15.2791 23.0571 13.7204ZM19.0452 19.3455C18.5025 21.5257 14.8313 20.3472 13.6409 20.0516L14.6052 16.1867C15.7955 16.4837 19.6123 17.0717 19.0452 19.3455ZM19.5883 13.6888C19.0932 15.672 16.0376 14.6645 15.0464 14.4175L15.9205 10.9121C16.9119 11.1592 20.1037 11.6203 19.5883 13.6888Z" fill="white"/>
</g>
</g>
</g>
<defs>
<clipPath id="clip0_2231_58779">
<rect width="32" height="32" fill="white"/>
</clipPath>
</defs>
</svg>
