<svg width="32" height="32" viewBox="0 0 32 32" fill="none" xmlns="http://www.w3.org/2000/svg">
<g clip-path="url(#clip0_2231_60578)">
<path d="M16 32C24.8366 32 32 24.8366 32 16C32 7.16344 24.8366 0 16 0C7.16344 0 0 7.16344 0 16C0 24.8366 7.16344 32 16 32Z" fill="#26A17B"/>
<path fill-rule="evenodd" clip-rule="evenodd" d="M17.9218 17.3833V17.3813C17.8118 17.3893 17.2448 17.4233 15.9798 17.4233C14.9698 17.4233 14.2588 17.3933 14.0088 17.3813V17.3843C10.1208 17.2133 7.2188 16.5363 7.2188 15.7263C7.2188 14.9173 10.1208 14.2403 14.0088 14.0663V16.7103C14.2628 16.7283 14.9908 16.7713 15.9968 16.7713C17.2038 16.7713 17.8088 16.7213 17.9218 16.7113V14.0683C21.8018 14.2413 24.6968 14.9183 24.6968 15.7263C24.6968 16.5363 21.8018 17.2113 17.9218 17.3833ZM17.9218 13.7933V11.4273H23.3358V7.81934H8.5948V11.4273H14.0088V13.7923C9.6088 13.9943 6.2998 14.8663 6.2998 15.9103C6.2998 16.9543 9.6088 17.8253 14.0088 18.0283V25.6103H17.9218V18.0263C22.3148 17.8243 25.6158 16.9533 25.6158 15.9103C25.6158 14.8673 22.3148 13.9963 17.9218 13.7933Z" fill="white"/>
<path d="M30 19.5H21C20.1716 19.5 19.5 20.1716 19.5 21V30C19.5 30.8284 20.1716 31.5 21 31.5H30C30.8284 31.5 31.5 30.8284 31.5 30V21C31.5 20.1716 30.8284 19.5 30 19.5Z" fill="#FF060A"/>
<path d="M30 19.5H21C20.1716 19.5 19.5 20.1716 19.5 21V30C19.5 30.8284 20.1716 31.5 21 31.5H30C30.8284 31.5 31.5 30.8284 31.5 30V21C31.5 20.1716 30.8284 19.5 30 19.5Z" stroke="#F7F7F7"/>
<path fill-rule="evenodd" clip-rule="evenodd" d="M21.0848 21.0933C21.1244 21.0553 21.1753 21.0273 21.2321 21.0124C21.2888 20.9974 21.3493 20.996 21.4069 21.0083L28.3394 22.4657C28.3813 22.4747 28.4197 22.4901 28.4547 22.5117L29.8652 23.3942C29.9341 23.4374 29.9808 23.502 29.9953 23.5742C30.0097 23.6464 29.9908 23.7207 29.9426 23.7812L25.0904 29.8768C25.0562 29.9199 25.0087 29.954 24.9533 29.9753C24.8979 29.9966 24.8367 30.0044 24.7765 29.9976C24.7163 29.9909 24.6594 29.97 24.6122 29.9372C24.565 29.9044 24.5293 29.861 24.5092 29.8118L21.0196 21.3773C20.9993 21.3294 20.9947 21.2776 21.0062 21.2275C21.0177 21.1775 21.0449 21.1311 21.0848 21.0933ZM22.2292 22.6157L24.6518 28.4709L25.0502 25.4361L22.2292 22.6157ZM25.6983 25.5346L25.2936 28.6219L28.7202 24.3171L25.6983 25.5346ZM29.0295 23.5697L26.8206 24.4596L28.3015 23.1137L29.0295 23.5697ZM27.6347 22.8982L22.2449 21.7653L25.4048 24.9251L27.6347 22.8982Z" fill="white"/>
</g>
<defs>
<clipPath id="clip0_2231_60578">
<rect width="32" height="32" fill="white"/>
</clipPath>
</defs>
</svg>
