<svg width="32" height="32" viewBox="0 0 32 32" fill="none" xmlns="http://www.w3.org/2000/svg">
<g clip-path="url(#clip0_2231_60058)">
<mask id="mask0_2231_60058" style="mask-type:luminance" maskUnits="userSpaceOnUse" x="0" y="0" width="32" height="32">
<path d="M32 0H0V32H32V0Z" fill="white"/>
</mask>
<g mask="url(#mask0_2231_60058)">
<mask id="mask1_2231_60058" style="mask-type:luminance" maskUnits="userSpaceOnUse" x="0" y="0" width="32" height="32">
<path d="M32 0H0V32H32V0Z" fill="white"/>
</mask>
<g mask="url(#mask1_2231_60058)">
<path d="M31.9992 15.9984C31.9992 24.8339 24.8365 31.9968 15.9996 31.9968C7.16268 31.9968 0 24.8339 0 15.9984C0 7.16303 7.16285 0 15.9996 0C24.8364 0 31.9992 7.16235 31.9992 15.9984Z" fill="white"/>
<path d="M15.9999 0C7.1661 0 -0.00927942 7.17316 0.00196633 15.9979C0.00418139 17.7635 0.28575 19.4619 0.814216 21.0504H5.60115V7.5922L15.9999 17.9897L26.3982 7.5922V21.0507H31.186C31.7153 19.4621 31.9953 17.7639 31.9985 15.9981C32.0136 7.16421 24.8345 0.00212965 15.9999 0.00212965V0Z" fill="#F26822"/>
<path d="M13.6077 20.3802L9.06969 15.8423V24.311H5.60013L2.32617 24.3116C5.13445 28.9184 10.2097 32.0002 15.9992 32.0002C21.7887 32.0002 26.8641 28.9178 29.6729 24.311H22.9276V15.8423L18.3893 20.3802L15.9987 22.7706L13.6077 20.3802Z" fill="#4D4D4D"/>
</g>
</g>
</g>
<defs>
<clipPath id="clip0_2231_60058">
<rect width="32" height="32" fill="white"/>
</clipPath>
</defs>
</svg>
